<svg width="1562" height="400" viewBox="0 0 1562 400" fill="none" xmlns="http://www.w3.org/2000/svg">
<path d="M209.796 7.99965C200.656 12.5833 184.158 25.5165 171.544 37.9536C158.14 51.2373 146.256 66.2143 141.438 75.9362C134.517 89.9206 133.612 94.8254 134.459 113.89C135.247 132.545 136.707 137.742 144.241 148.924C149.117 156.164 155.337 162.382 158.082 162.791C162.404 163.433 162.842 161.623 161.352 149.653C160.389 141.888 161.06 132.574 162.842 128.487C164.594 124.458 168.653 119.553 171.865 117.539C175.048 115.525 178.26 114.211 178.96 114.62C179.69 115.028 181.326 131.465 182.61 151.142C183.954 171.491 186.231 186.906 187.896 186.877C189.502 186.877 195.108 180.629 200.335 173.009C205.562 165.39 212.6 150.588 215.987 140.165C220.688 125.597 222.674 108.985 224.572 68.6375C225.915 39.7345 227.667 12.4664 228.485 8.05801C229.273 3.64957 229.04 0.00017535 227.901 0.00017535C226.791 -0.0290196 218.615 3.59121 209.796 7.99965ZM25.5987 86.8843C28.8692 91.2928 33.5413 104.43 35.9941 116.079C38.447 127.728 42.4767 142.18 44.988 148.194C47.47 154.208 52.4049 162.266 55.9382 166.119C59.4423 169.944 69.2245 176.162 77.6635 179.987C86.1024 183.782 101.199 188.833 111.244 191.227C121.289 193.592 133.115 195.577 137.525 195.606C141.934 195.606 144.883 194.322 144.095 192.716C143.306 191.11 135.072 185.563 125.844 180.396C116.617 175.228 104.061 166.353 97.9579 160.689C91.8842 155.025 86.9493 148.077 87.0077 145.274C87.0953 142.471 88.7889 140.194 90.8037 140.194C92.8186 140.224 101.024 147.259 109.054 155.843C117.084 164.426 125.29 170.995 127.305 170.411C129.319 169.827 130.955 166.061 130.955 162.061C130.955 158.032 126.02 145.274 120.004 133.655C113.989 122.064 104.44 107.759 98.8339 101.861C91.3293 94.0079 83.2116 89.5411 68.1733 84.9574C56.931 81.5416 41.4255 78.7682 33.7166 78.7974L19.6711 78.8557L25.5987 86.8843ZM262.27 137.041C258.182 138.238 249.042 142.092 241.917 145.625C233.77 149.624 225.448 157.098 219.462 165.769C214.206 173.36 209.913 181.213 209.855 183.228C209.826 185.388 211.87 186.206 214.906 185.242C217.71 184.366 225.273 182.323 231.697 180.746C238.121 179.14 258.474 178.235 276.958 178.702L310.538 179.578C282.243 194.292 264.839 200.511 253.597 202.934C242.355 205.328 225.915 207.313 217.096 207.313C208.249 207.313 200.364 208.627 199.576 210.233C198.758 211.839 205.65 215.955 214.906 219.371C226.149 223.546 241.304 226.057 260.897 227.02C282.506 228.071 295.004 227.195 309.078 223.575C319.503 220.889 333.957 214.962 341.199 210.379C348.412 205.795 358.194 196.978 362.954 190.818C367.684 184.629 374.575 172.688 378.284 164.251C381.963 155.814 385 148.252 385 147.464C385 146.676 377.437 146.792 368.21 147.785C355.099 149.186 345.316 147.902 323.679 141.946C308.407 137.771 290.01 134.443 282.798 134.589C275.556 134.706 266.329 135.815 262.27 137.041ZM74.0134 207.576C65.5744 209.007 54.9162 213.503 48.8425 218.174C43.0315 222.641 31.7017 231.545 23.6715 237.968C15.6414 244.391 6.61836 251.135 3.5815 252.945C0.544632 254.784 -0.827762 257.412 0.515467 258.784C1.8587 260.185 20.2551 261.324 41.3963 261.324C76.1451 261.324 81.1091 260.653 92.9938 254.434C100.206 250.639 113.025 242.435 121.464 236.187C129.874 229.94 136.795 222.845 136.795 220.451C136.795 216.773 135.013 216.568 125.844 219.225C119.8 220.947 111.595 221.911 107.594 221.356C100.382 220.393 100.411 220.305 109.784 215.313C114.982 212.51 118.603 208.919 117.814 207.313C116.997 205.708 110.105 204.54 102.484 204.744C94.8334 204.919 82.0435 206.204 74.0134 207.576ZM152.621 222.641C145 229.794 137.291 240.625 134.429 248.186C131.597 255.748 129.524 269.382 129.582 280.301C129.641 296.212 131.977 304.941 144.007 334.311C153.351 357.2 158.637 374.659 159.25 384.673C159.922 396.175 161.265 400 164.652 400C167.163 400 175.369 393.752 182.902 386.132C190.465 378.513 200.54 364.382 205.27 354.748C210.03 345.114 214.439 331.334 215.111 324.093C216.016 314.663 214.614 307.452 210.147 298.548C206.73 291.716 202.292 286.549 200.306 287.074C198.291 287.57 194.028 292.825 190.816 298.723C187.604 304.649 183.983 309.496 182.786 309.496C181.559 309.496 178.406 296.679 175.777 281.031C171.777 257.5 171.573 250.551 174.551 240.888C176.537 234.465 178.493 224.947 178.902 219.721C179.574 211.488 178.785 210.233 172.77 210.233C168.653 210.233 160.476 215.254 152.621 222.641ZM206.876 240.596C207.665 241.326 216.542 247.281 226.587 253.821C236.602 260.361 244.837 267.017 244.837 268.623C244.837 270.229 243.173 271.513 241.187 271.484C239.172 271.455 234.237 268.856 230.237 265.703C226.207 262.55 221.272 259.952 219.286 259.923C217.272 259.893 215.666 261.499 215.724 263.514C215.782 265.528 220.046 274.9 225.214 284.33C230.383 293.789 237.887 303.774 241.917 306.518C245.917 309.262 253.802 313.057 259.437 314.926C265.044 316.824 274.914 318.371 281.338 318.4C292.317 318.429 292.726 318.137 288.346 313.233C285.806 310.372 281.484 298.84 278.768 287.6C275.439 273.819 271.264 264.536 265.891 259.076C261.54 254.638 250.093 248.391 240.457 245.179C230.821 241.997 218.994 239.34 214.176 239.311C209.358 239.282 206.059 239.866 206.876 240.596Z" fill="white"/>
<path d="M577.955 79.0455V224.5H560.909L481.648 110.295H480.227V224.5H462.614V79.0455H479.659L559.205 193.534H560.625V79.0455H577.955ZM708.654 79.0455H726.268V175.352C726.268 185.295 723.924 194.173 719.237 201.986C714.596 209.751 708.039 215.883 699.563 220.381C691.088 224.831 681.145 227.057 669.734 227.057C658.323 227.057 648.379 224.831 639.904 220.381C631.429 215.883 624.847 209.751 620.16 201.986C615.52 194.173 613.2 185.295 613.2 175.352V79.0455H630.813V173.932C630.813 181.034 632.376 187.355 635.501 192.895C638.626 198.387 643.076 202.72 648.853 205.892C654.677 209.017 661.637 210.58 669.734 210.58C677.83 210.58 684.79 209.017 690.614 205.892C696.438 202.72 700.889 198.387 703.967 192.895C707.092 187.355 708.654 181.034 708.654 173.932V79.0455ZM753.487 94.6705V79.0455H862.578V94.6705H816.839V224.5H799.226V94.6705H753.487ZM889.762 224.5V79.0455H938.91C950.273 79.0455 959.601 80.9867 966.893 84.8693C974.184 88.7045 979.582 93.9839 983.086 100.707C986.59 107.431 988.342 115.078 988.342 123.648C988.342 132.218 986.59 139.817 983.086 146.446C979.582 153.075 974.208 158.283 966.964 162.071C959.719 165.812 950.463 167.682 939.194 167.682H899.421V151.773H938.626C946.391 151.773 952.641 150.636 957.376 148.364C962.158 146.091 965.614 142.871 967.745 138.705C969.923 134.491 971.012 129.472 971.012 123.648C971.012 117.824 969.923 112.734 967.745 108.378C965.567 104.022 962.087 100.66 957.305 98.2926C952.522 95.8778 946.201 94.6705 938.342 94.6705H907.376V224.5H889.762ZM958.228 159.159L994.023 224.5H973.569L938.342 159.159H958.228ZM1023.66 224.5H1005.19L1058.6 79.0455H1076.78L1130.19 224.5H1111.73L1068.26 102.057H1067.12L1023.66 224.5ZM1030.48 167.682H1104.91V183.307H1030.48V167.682ZM1152.85 224.5V79.0455H1170.46V143.818H1248.02V79.0455H1265.63V224.5H1248.02V159.443H1170.46V224.5H1152.85ZM1396.35 79.0455H1413.96V175.352C1413.96 185.295 1411.62 194.173 1406.93 201.986C1402.29 209.751 1395.73 215.883 1387.26 220.381C1378.78 224.831 1368.84 227.057 1357.43 227.057C1346.02 227.057 1336.07 224.831 1327.6 220.381C1319.12 215.883 1312.54 209.751 1307.86 201.986C1303.21 194.173 1300.89 185.295 1300.89 175.352V79.0455H1318.51V173.932C1318.51 181.034 1320.07 187.355 1323.2 192.895C1326.32 198.387 1330.77 202.72 1336.55 205.892C1342.37 209.017 1349.33 210.58 1357.43 210.58C1365.53 210.58 1372.49 209.017 1378.31 205.892C1384.13 202.72 1388.58 198.387 1391.66 192.895C1394.79 187.355 1396.35 181.034 1396.35 173.932V79.0455ZM1449.14 224.5V79.0455H1499.99C1510.12 79.0455 1518.48 80.7973 1525.06 84.3011C1531.64 87.7576 1536.54 92.4214 1539.76 98.2926C1542.98 104.116 1544.59 110.58 1544.59 117.682C1544.59 123.932 1543.48 129.093 1541.25 133.165C1539.08 137.237 1536.19 140.456 1532.59 142.824C1529.04 145.191 1525.18 146.943 1521.01 148.08V149.5C1525.46 149.784 1529.94 151.347 1534.44 154.188C1538.93 157.028 1542.7 161.1 1545.73 166.403C1548.76 171.706 1550.27 178.193 1550.27 185.864C1550.27 193.155 1548.62 199.713 1545.3 205.537C1541.99 211.361 1536.76 215.977 1529.61 219.386C1522.46 222.795 1513.15 224.5 1501.69 224.5H1449.14ZM1466.75 208.875H1501.69C1513.2 208.875 1521.37 206.65 1526.2 202.199C1531.07 197.701 1533.51 192.256 1533.51 185.864C1533.51 180.939 1532.26 176.394 1529.75 172.227C1527.24 168.013 1523.66 164.652 1519.02 162.142C1514.38 159.585 1508.89 158.307 1502.55 158.307H1466.75V208.875ZM1466.75 142.966H1499.42C1504.72 142.966 1509.51 141.924 1513.77 139.841C1518.08 137.758 1521.49 134.822 1524 131.034C1526.55 127.246 1527.83 122.795 1527.83 117.682C1527.83 111.29 1525.6 105.868 1521.15 101.418C1516.7 96.9195 1509.65 94.6705 1499.99 94.6705H1466.75V142.966Z" fill="white"/>
<path d="M527.95 350.5L512.04 292.318H519.2L531.359 339.705H531.927L544.313 292.318H552.268L564.654 339.705H565.222L577.381 292.318H584.54L568.631 350.5H561.359L548.518 304.136H548.063L535.222 350.5H527.95ZM593.319 350.5V292.318H628.433V298.568H600.364V318.227H626.614V324.477H600.364V344.25H628.887V350.5H593.319ZM641.131 350.5V292.318H648.177V344.25H675.222V350.5H641.131ZM686.131 350.5V292.318H693.177V344.25H720.222V350.5H686.131ZM777.268 292.318V350.5H770.45L738.745 304.818H738.177V350.5H731.131V292.318H737.95L769.768 338.114H770.336V292.318H777.268ZM791.366 350.5V292.318H826.479V298.568H798.411V318.227H824.661V324.477H798.411V344.25H826.934V350.5H791.366ZM870.996 306.864C870.656 303.985 869.273 301.75 866.849 300.159C864.424 298.568 861.451 297.773 857.928 297.773C855.353 297.773 853.099 298.189 851.167 299.023C849.254 299.856 847.758 301.002 846.678 302.46C845.618 303.919 845.087 305.576 845.087 307.432C845.087 308.985 845.457 310.32 846.195 311.438C846.953 312.536 847.919 313.455 849.093 314.193C850.267 314.913 851.498 315.509 852.786 315.983C854.074 316.437 855.258 316.807 856.337 317.091L862.246 318.682C863.762 319.08 865.447 319.629 867.303 320.33C869.178 321.03 870.968 321.987 872.673 323.199C874.396 324.392 875.817 325.926 876.934 327.801C878.051 329.676 878.61 331.977 878.61 334.705C878.61 337.848 877.786 340.689 876.138 343.227C874.51 345.765 872.123 347.782 868.979 349.278C865.854 350.775 862.057 351.523 857.587 351.523C853.421 351.523 849.813 350.85 846.763 349.506C843.733 348.161 841.347 346.286 839.604 343.881C837.881 341.475 836.906 338.682 836.678 335.5H843.951C844.14 337.697 844.879 339.515 846.167 340.955C847.474 342.375 849.121 343.436 851.11 344.136C853.118 344.818 855.277 345.159 857.587 345.159C860.277 345.159 862.692 344.723 864.832 343.852C866.972 342.962 868.667 341.731 869.917 340.159C871.167 338.568 871.792 336.712 871.792 334.591C871.792 332.659 871.252 331.087 870.173 329.875C869.093 328.663 867.673 327.678 865.911 326.92C864.15 326.163 862.246 325.5 860.201 324.932L853.042 322.886C848.496 321.58 844.898 319.714 842.246 317.29C839.595 314.866 838.269 311.693 838.269 307.773C838.269 304.515 839.15 301.674 840.911 299.25C842.692 296.807 845.078 294.913 848.07 293.568C851.082 292.205 854.443 291.523 858.156 291.523C861.906 291.523 865.239 292.195 868.156 293.54C871.072 294.866 873.383 296.684 875.087 298.994C876.811 301.305 877.72 303.928 877.815 306.864H870.996ZM922.012 306.864C921.671 303.985 920.289 301.75 917.864 300.159C915.44 298.568 912.467 297.773 908.944 297.773C906.368 297.773 904.114 298.189 902.183 299.023C900.27 299.856 898.773 301.002 897.694 302.46C896.633 303.919 896.103 305.576 896.103 307.432C896.103 308.985 896.472 310.32 897.211 311.438C897.969 312.536 898.934 313.455 900.109 314.193C901.283 314.913 902.514 315.509 903.802 315.983C905.09 316.437 906.273 316.807 907.353 317.091L913.262 318.682C914.777 319.08 916.463 319.629 918.319 320.33C920.194 321.03 921.984 321.987 923.688 323.199C925.412 324.392 926.832 325.926 927.95 327.801C929.067 329.676 929.626 331.977 929.626 334.705C929.626 337.848 928.802 340.689 927.154 343.227C925.525 345.765 923.139 347.782 919.995 349.278C916.87 350.775 913.073 351.523 908.603 351.523C904.436 351.523 900.828 350.85 897.779 349.506C894.749 348.161 892.362 346.286 890.62 343.881C888.897 341.475 887.921 338.682 887.694 335.5H894.967C895.156 337.697 895.895 339.515 897.183 340.955C898.489 342.375 900.137 343.436 902.126 344.136C904.133 344.818 906.292 345.159 908.603 345.159C911.292 345.159 913.707 344.723 915.847 343.852C917.987 342.962 919.683 341.731 920.933 340.159C922.183 338.568 922.808 336.712 922.808 334.591C922.808 332.659 922.268 331.087 921.188 329.875C920.109 328.663 918.688 327.678 916.927 326.92C915.165 326.163 913.262 325.5 911.217 324.932L904.058 322.886C899.512 321.58 895.914 319.714 893.262 317.29C890.611 314.866 889.285 311.693 889.285 307.773C889.285 304.515 890.165 301.674 891.927 299.25C893.707 296.807 896.094 294.913 899.086 293.568C902.097 292.205 905.459 291.523 909.171 291.523C912.921 291.523 916.254 292.195 919.171 293.54C922.088 294.866 924.398 296.684 926.103 298.994C927.826 301.305 928.736 303.928 928.83 306.864H922.012ZM963.71 292.318H972.119L991.891 340.614H992.573L1012.35 292.318H1020.75V350.5H1014.16V306.295H1013.6L995.414 350.5H989.05L970.869 306.295H970.3V350.5H963.71V292.318ZM1037.27 350.5H1029.88L1051.25 292.318H1058.52L1079.88 350.5H1072.5L1055.11 301.523H1054.65L1037.27 350.5ZM1040 327.773H1069.77V334.023H1040V327.773ZM1106.9 350.5H1088.94V292.318H1107.69C1113.34 292.318 1118.17 293.483 1122.18 295.812C1126.2 298.123 1129.28 301.447 1131.42 305.784C1133.56 310.102 1134.63 315.273 1134.63 321.295C1134.63 327.356 1133.55 332.574 1131.39 336.949C1129.23 341.305 1126.08 344.657 1121.96 347.006C1117.83 349.335 1112.81 350.5 1106.9 350.5ZM1095.99 344.25H1106.44C1111.25 344.25 1115.24 343.322 1118.4 341.466C1121.57 339.61 1123.92 336.968 1125.48 333.54C1127.03 330.112 1127.81 326.03 1127.81 321.295C1127.81 316.598 1127.04 312.555 1125.51 309.165C1123.97 305.756 1121.68 303.142 1118.63 301.324C1115.58 299.487 1111.78 298.568 1107.24 298.568H1095.99V344.25ZM1146.44 350.5V292.318H1181.56V298.568H1153.49V318.227H1179.74V324.477H1153.49V344.25H1182.01V350.5H1146.44ZM1248.57 306.864C1248.23 303.985 1246.85 301.75 1244.43 300.159C1242 298.568 1239.03 297.773 1235.51 297.773C1232.93 297.773 1230.68 298.189 1228.75 299.023C1226.83 299.856 1225.34 301.002 1224.26 302.46C1223.2 303.919 1222.67 305.576 1222.67 307.432C1222.67 308.985 1223.03 310.32 1223.77 311.438C1224.53 312.536 1225.5 313.455 1226.67 314.193C1227.85 314.913 1229.08 315.509 1230.36 315.983C1231.65 316.437 1232.84 316.807 1233.92 317.091L1239.82 318.682C1241.34 319.08 1243.03 319.629 1244.88 320.33C1246.76 321.03 1248.55 321.987 1250.25 323.199C1251.97 324.392 1253.39 325.926 1254.51 327.801C1255.63 329.676 1256.19 331.977 1256.19 334.705C1256.19 337.848 1255.36 340.689 1253.72 343.227C1252.09 345.765 1249.7 347.782 1246.56 349.278C1243.43 350.775 1239.64 351.523 1235.17 351.523C1231 351.523 1227.39 350.85 1224.34 349.506C1221.31 348.161 1218.92 346.286 1217.18 343.881C1215.46 341.475 1214.48 338.682 1214.26 335.5H1221.53C1221.72 337.697 1222.46 339.515 1223.75 340.955C1225.05 342.375 1226.7 343.436 1228.69 344.136C1230.7 344.818 1232.85 345.159 1235.17 345.159C1237.85 345.159 1240.27 344.723 1242.41 343.852C1244.55 342.962 1246.25 341.731 1247.5 340.159C1248.75 338.568 1249.37 336.712 1249.37 334.591C1249.37 332.659 1248.83 331.087 1247.75 329.875C1246.67 328.663 1245.25 327.678 1243.49 326.92C1241.73 326.163 1239.82 325.5 1237.78 324.932L1230.62 322.886C1226.07 321.58 1222.48 319.714 1219.82 317.29C1217.17 314.866 1215.85 311.693 1215.85 307.773C1215.85 304.515 1216.73 301.674 1218.49 299.25C1220.27 296.807 1222.66 294.913 1225.65 293.568C1228.66 292.205 1232.02 291.523 1235.73 291.523C1239.48 291.523 1242.82 292.195 1245.73 293.54C1248.65 294.866 1250.96 296.684 1252.67 298.994C1254.39 301.305 1255.3 303.928 1255.39 306.864H1248.57ZM1274.82 292.318V350.5H1267.77V292.318H1274.82ZM1288.94 292.318H1297.35L1317.13 340.614H1317.81L1337.58 292.318H1345.99V350.5H1339.4V306.295H1338.83L1320.65 350.5H1314.28L1296.1 306.295H1295.53V350.5H1288.94V292.318ZM1360.12 350.5V292.318H1379.77C1384.34 292.318 1388.07 293.142 1390.97 294.79C1393.88 296.419 1396.04 298.625 1397.45 301.409C1398.85 304.193 1399.55 307.299 1399.55 310.727C1399.55 314.155 1398.85 317.271 1397.45 320.074C1396.06 322.877 1393.92 325.112 1391.02 326.778C1388.13 328.426 1384.42 329.25 1379.89 329.25H1365.8V323H1379.66C1382.79 323 1385.3 322.46 1387.19 321.381C1389.08 320.301 1390.46 318.843 1391.31 317.006C1392.18 315.15 1392.62 313.057 1392.62 310.727C1392.62 308.398 1392.18 306.314 1391.31 304.477C1390.46 302.64 1389.07 301.201 1387.16 300.159C1385.25 299.098 1382.71 298.568 1379.55 298.568H1367.16V350.5H1360.12ZM1410.9 350.5V292.318H1417.94V344.25H1444.99V350.5H1410.9ZM1455.9 350.5V292.318H1491.01V298.568H1462.94V318.227H1489.19V324.477H1462.94V344.25H1491.47V350.5H1455.9Z" fill="white"/>
</svg>
